<svg xmlns="http://www.w3.org/2000/svg" xmlns:xlink="http://www.w3.org/1999/xlink" width="500" zoomAndPan="magnify" viewBox="0 0 375 374.999991" height="500" preserveAspectRatio="xMidYMid meet" version="1.0"><defs><g/><clipPath id="ad896f36bc"><path d="M 115.210938 114.867188 L 146.136719 114.867188 L 146.136719 144.523438 L 115.210938 144.523438 Z M 115.210938 114.867188 " clip-rule="nonzero"/></clipPath><clipPath id="04b0665bb5"><path d="M 127.210938 114.867188 L 134.027344 114.867188 C 140.65625 114.867188 146.027344 120.242188 146.027344 126.867188 L 146.027344 132.523438 C 146.027344 139.148438 140.65625 144.523438 134.027344 144.523438 L 127.210938 144.523438 C 120.582031 144.523438 115.210938 139.148438 115.210938 132.523438 L 115.210938 126.867188 C 115.210938 120.242188 120.582031 114.867188 127.210938 114.867188 Z M 127.210938 114.867188 " clip-rule="nonzero"/></clipPath><clipPath id="d285fd5068"><path d="M 0.210938 0.867188 L 31.136719 0.867188 L 31.136719 30.523438 L 0.210938 30.523438 Z M 0.210938 0.867188 " clip-rule="nonzero"/></clipPath><clipPath id="7c66948c92"><path d="M 12.210938 0.867188 L 19.027344 0.867188 C 25.65625 0.867188 31.027344 6.242188 31.027344 12.867188 L 31.027344 18.523438 C 31.027344 25.148438 25.65625 30.523438 19.027344 30.523438 L 12.210938 30.523438 C 5.582031 30.523438 0.210938 25.148438 0.210938 18.523438 L 0.210938 12.867188 C 0.210938 6.242188 5.582031 0.867188 12.210938 0.867188 Z M 12.210938 0.867188 " clip-rule="nonzero"/></clipPath><clipPath id="6f5b231f98"><rect x="0" width="32" y="0" height="31"/></clipPath><clipPath id="91898b0591"><path d="M 183.839844 102.246094 L 250.589844 102.246094 L 250.589844 168.996094 L 183.839844 168.996094 Z M 183.839844 102.246094 " clip-rule="nonzero"/></clipPath><clipPath id="57b5a84fbc"><path d="M 21 0.359375 L 44 0.359375 L 44 45 L 21 45 Z M 21 0.359375 " clip-rule="nonzero"/></clipPath><clipPath id="d39de3c965"><rect x="0" width="111" y="0" height="54"/></clipPath><clipPath id="dc030bbf57"><path d="M 1 0.0390625 L 11 0.0390625 L 11 20 L 1 20 Z M 1 0.0390625 " clip-rule="nonzero"/></clipPath><clipPath id="90e546f1e7"><path d="M 12 0.0390625 L 23 0.0390625 L 23 20 L 12 20 Z M 12 0.0390625 " clip-rule="nonzero"/></clipPath><clipPath id="8223738898"><path d="M 23 0.0390625 L 34 0.0390625 L 34 20 L 23 20 Z M 23 0.0390625 " clip-rule="nonzero"/></clipPath><clipPath id="64860f533b"><rect x="0" width="34" y="0" height="25"/></clipPath><clipPath id="63469bf432"><path d="M 115.210938 147.855469 L 146.136719 147.855469 L 146.136719 177.507812 L 115.210938 177.507812 Z M 115.210938 147.855469 " clip-rule="nonzero"/></clipPath><clipPath id="17303179ac"><path d="M 127.210938 147.855469 L 134.027344 147.855469 C 140.65625 147.855469 146.027344 153.226562 146.027344 159.855469 L 146.027344 165.507812 C 146.027344 172.136719 140.65625 177.507812 134.027344 177.507812 L 127.210938 177.507812 C 120.582031 177.507812 115.210938 172.136719 115.210938 165.507812 L 115.210938 159.855469 C 115.210938 153.226562 120.582031 147.855469 127.210938 147.855469 Z M 127.210938 147.855469 " clip-rule="nonzero"/></clipPath><clipPath id="3a09c46359"><path d="M 0.210938 0.855469 L 31.136719 0.855469 L 31.136719 30.507812 L 0.210938 30.507812 Z M 0.210938 0.855469 " clip-rule="nonzero"/></clipPath><clipPath id="dc93804dd0"><path d="M 12.210938 0.855469 L 19.027344 0.855469 C 25.65625 0.855469 31.027344 6.226562 31.027344 12.855469 L 31.027344 18.507812 C 31.027344 25.136719 25.65625 30.507812 19.027344 30.507812 L 12.210938 30.507812 C 5.582031 30.507812 0.210938 25.136719 0.210938 18.507812 L 0.210938 12.855469 C 0.210938 6.226562 5.582031 0.855469 12.210938 0.855469 Z M 12.210938 0.855469 " clip-rule="nonzero"/></clipPath><clipPath id="ec73244f93"><rect x="0" width="32" y="0" height="31"/></clipPath><clipPath id="e018f406c7"><path d="M 115.210938 180.769531 L 146.136719 180.769531 L 146.136719 210.421875 L 115.210938 210.421875 Z M 115.210938 180.769531 " clip-rule="nonzero"/></clipPath><clipPath id="34a274cc62"><path d="M 127.210938 180.769531 L 134.027344 180.769531 C 140.65625 180.769531 146.027344 186.140625 146.027344 192.769531 L 146.027344 198.421875 C 146.027344 205.050781 140.65625 210.421875 134.027344 210.421875 L 127.210938 210.421875 C 120.582031 210.421875 115.210938 205.050781 115.210938 198.421875 L 115.210938 192.769531 C 115.210938 186.140625 120.582031 180.769531 127.210938 180.769531 Z M 127.210938 180.769531 " clip-rule="nonzero"/></clipPath><clipPath id="89414eef8f"><path d="M 0.210938 0.769531 L 31.136719 0.769531 L 31.136719 30.421875 L 0.210938 30.421875 Z M 0.210938 0.769531 " clip-rule="nonzero"/></clipPath><clipPath id="ad24647b4d"><path d="M 12.210938 0.769531 L 19.027344 0.769531 C 25.65625 0.769531 31.027344 6.140625 31.027344 12.769531 L 31.027344 18.421875 C 31.027344 25.050781 25.65625 30.421875 19.027344 30.421875 L 12.210938 30.421875 C 5.582031 30.421875 0.210938 25.050781 0.210938 18.421875 L 0.210938 12.769531 C 0.210938 6.140625 5.582031 0.769531 12.210938 0.769531 Z M 12.210938 0.769531 " clip-rule="nonzero"/></clipPath><clipPath id="51b1dd8fd7"><rect x="0" width="32" y="0" height="31"/></clipPath><clipPath id="ba5a7f4d9b"><path d="M 115.210938 213.683594 L 146.136719 213.683594 L 146.136719 243.339844 L 115.210938 243.339844 Z M 115.210938 213.683594 " clip-rule="nonzero"/></clipPath><clipPath id="844e1e343e"><path d="M 127.210938 213.683594 L 134.027344 213.683594 C 140.65625 213.683594 146.027344 219.054688 146.027344 225.683594 L 146.027344 231.339844 C 146.027344 237.964844 140.65625 243.339844 134.027344 243.339844 L 127.210938 243.339844 C 120.582031 243.339844 115.210938 237.964844 115.210938 231.339844 L 115.210938 225.683594 C 115.210938 219.054688 120.582031 213.683594 127.210938 213.683594 Z M 127.210938 213.683594 " clip-rule="nonzero"/></clipPath><clipPath id="2b9a091744"><path d="M 0.210938 0.683594 L 31.136719 0.683594 L 31.136719 30.339844 L 0.210938 30.339844 Z M 0.210938 0.683594 " clip-rule="nonzero"/></clipPath><clipPath id="2947f33247"><path d="M 12.210938 0.683594 L 19.027344 0.683594 C 25.65625 0.683594 31.027344 6.054688 31.027344 12.683594 L 31.027344 18.339844 C 31.027344 24.964844 25.65625 30.339844 19.027344 30.339844 L 12.210938 30.339844 C 5.582031 30.339844 0.210938 24.964844 0.210938 18.339844 L 0.210938 12.683594 C 0.210938 6.054688 5.582031 0.683594 12.210938 0.683594 Z M 12.210938 0.683594 " clip-rule="nonzero"/></clipPath><clipPath id="c4b0c19b03"><rect x="0" width="32" y="0" height="31"/></clipPath><clipPath id="33931579a1"><path d="M 148.480469 180.769531 L 179.410156 180.769531 L 179.410156 210.421875 L 148.480469 210.421875 Z M 148.480469 180.769531 " clip-rule="nonzero"/></clipPath><clipPath id="7128fedaa8"><path d="M 160.480469 180.769531 L 167.300781 180.769531 C 173.929688 180.769531 179.300781 186.140625 179.300781 192.769531 L 179.300781 198.421875 C 179.300781 205.050781 173.929688 210.421875 167.300781 210.421875 L 160.480469 210.421875 C 153.855469 210.421875 148.480469 205.050781 148.480469 198.421875 L 148.480469 192.769531 C 148.480469 186.140625 153.855469 180.769531 160.480469 180.769531 Z M 160.480469 180.769531 " clip-rule="nonzero"/></clipPath><clipPath id="df66d50621"><path d="M 0.480469 0.769531 L 31.410156 0.769531 L 31.410156 30.421875 L 0.480469 30.421875 Z M 0.480469 0.769531 " clip-rule="nonzero"/></clipPath><clipPath id="035f0eb3e3"><path d="M 12.480469 0.769531 L 19.300781 0.769531 C 25.929688 0.769531 31.300781 6.140625 31.300781 12.769531 L 31.300781 18.421875 C 31.300781 25.050781 25.929688 30.421875 19.300781 30.421875 L 12.480469 30.421875 C 5.855469 30.421875 0.480469 25.050781 0.480469 18.421875 L 0.480469 12.769531 C 0.480469 6.140625 5.855469 0.769531 12.480469 0.769531 Z M 12.480469 0.769531 " clip-rule="nonzero"/></clipPath><clipPath id="26940bb0c2"><rect x="0" width="32" y="0" height="31"/></clipPath><clipPath id="8531cbc100"><path d="M 148.480469 114.867188 L 179.410156 114.867188 L 179.410156 144.523438 L 148.480469 144.523438 Z M 148.480469 114.867188 " clip-rule="nonzero"/></clipPath><clipPath id="fe40c89425"><path d="M 160.480469 114.867188 L 167.300781 114.867188 C 173.929688 114.867188 179.300781 120.242188 179.300781 126.867188 L 179.300781 132.523438 C 179.300781 139.148438 173.929688 144.523438 167.300781 144.523438 L 160.480469 144.523438 C 153.855469 144.523438 148.480469 139.148438 148.480469 132.523438 L 148.480469 126.867188 C 148.480469 120.242188 153.855469 114.867188 160.480469 114.867188 Z M 160.480469 114.867188 " clip-rule="nonzero"/></clipPath><clipPath id="95df4c9dfd"><path d="M 0.480469 0.867188 L 31.410156 0.867188 L 31.410156 30.523438 L 0.480469 30.523438 Z M 0.480469 0.867188 " clip-rule="nonzero"/></clipPath><clipPath id="d80f7c2a73"><path d="M 12.480469 0.867188 L 19.300781 0.867188 C 25.929688 0.867188 31.300781 6.242188 31.300781 12.867188 L 31.300781 18.523438 C 31.300781 25.148438 25.929688 30.523438 19.300781 30.523438 L 12.480469 30.523438 C 5.855469 30.523438 0.480469 25.148438 0.480469 18.523438 L 0.480469 12.867188 C 0.480469 6.242188 5.855469 0.867188 12.480469 0.867188 Z M 12.480469 0.867188 " clip-rule="nonzero"/></clipPath><clipPath id="05f9afa9cd"><rect x="0" width="32" y="0" height="31"/></clipPath></defs><g clip-path="url(#ad896f36bc)"><g clip-path="url(#04b0665bb5)"><g transform="matrix(1, 0, 0, 1, 115, 114)"><g clip-path="url(#6f5b231f98)"><g clip-path="url(#d285fd5068)"><g clip-path="url(#7c66948c92)"><path fill="#00bf63" d="M 0.207031 0.867188 L 31.019531 0.867188 L 31.019531 30.523438 L 0.207031 30.523438 Z M 0.207031 0.867188 " fill-opacity="1" fill-rule="nonzero"/></g></g></g></g></g></g><g clip-path="url(#91898b0591)"><path fill="#ff0000" d="M 250.691406 135.648438 C 250.691406 136.746094 250.636719 137.835938 250.53125 138.925781 C 250.425781 140.015625 250.261719 141.097656 250.050781 142.171875 C 249.835938 143.25 249.570312 144.308594 249.253906 145.355469 C 248.933594 146.40625 248.566406 147.433594 248.148438 148.449219 C 247.726562 149.460938 247.257812 150.449219 246.742188 151.414062 C 246.226562 152.378906 245.664062 153.320312 245.054688 154.230469 C 244.449219 155.140625 243.796875 156.019531 243.101562 156.867188 C 242.40625 157.710938 241.671875 158.523438 240.898438 159.296875 C 240.121094 160.070312 239.3125 160.804688 238.464844 161.5 C 237.617188 162.195312 236.738281 162.847656 235.828125 163.457031 C 234.917969 164.066406 233.980469 164.628906 233.015625 165.144531 C 232.046875 165.660156 231.058594 166.128906 230.046875 166.546875 C 229.035156 166.964844 228.003906 167.335938 226.957031 167.652344 C 225.910156 167.96875 224.847656 168.234375 223.773438 168.449219 C 222.699219 168.664062 221.617188 168.824219 220.527344 168.929688 C 219.4375 169.039062 218.34375 169.09375 217.25 169.09375 C 216.152344 169.09375 215.0625 169.039062 213.972656 168.929688 C 212.882812 168.824219 211.800781 168.664062 210.726562 168.449219 C 209.652344 168.234375 208.589844 167.96875 207.542969 167.652344 C 206.492188 167.335938 205.464844 166.964844 204.453125 166.546875 C 203.441406 166.128906 202.449219 165.660156 201.484375 165.144531 C 200.519531 164.628906 199.582031 164.066406 198.667969 163.457031 C 197.757812 162.847656 196.878906 162.195312 196.035156 161.5 C 195.1875 160.804688 194.375 160.070312 193.601562 159.296875 C 192.828125 158.523438 192.09375 157.710938 191.398438 156.867188 C 190.703125 156.019531 190.050781 155.140625 189.441406 154.230469 C 188.835938 153.320312 188.273438 152.378906 187.753906 151.414062 C 187.238281 150.449219 186.769531 149.460938 186.351562 148.449219 C 185.933594 147.433594 185.566406 146.40625 185.246094 145.355469 C 184.929688 144.308594 184.664062 143.25 184.449219 142.171875 C 184.234375 141.097656 184.074219 140.015625 183.96875 138.925781 C 183.859375 137.835938 183.804688 136.746094 183.804688 135.648438 C 183.804688 134.554688 183.859375 133.460938 183.96875 132.371094 C 184.074219 131.28125 184.234375 130.199219 184.449219 129.125 C 184.664062 128.050781 184.929688 126.988281 185.246094 125.941406 C 185.566406 124.894531 185.933594 123.863281 186.351562 122.851562 C 186.769531 121.839844 187.238281 120.851562 187.753906 119.882812 C 188.273438 118.917969 188.835938 117.980469 189.441406 117.070312 C 190.050781 116.160156 190.703125 115.28125 191.398438 114.433594 C 192.09375 113.585938 192.828125 112.777344 193.601562 112 C 194.375 111.226562 195.1875 110.492188 196.035156 109.796875 C 196.878906 109.101562 197.757812 108.449219 198.667969 107.84375 C 199.582031 107.234375 200.519531 106.671875 201.484375 106.15625 C 202.449219 105.640625 203.441406 105.171875 204.453125 104.753906 C 205.464844 104.332031 206.492188 103.964844 207.542969 103.648438 C 208.589844 103.328125 209.652344 103.0625 210.726562 102.847656 C 211.800781 102.636719 212.882812 102.476562 213.972656 102.367188 C 215.0625 102.261719 216.152344 102.207031 217.25 102.207031 C 218.34375 102.207031 219.4375 102.261719 220.527344 102.367188 C 221.617188 102.476562 222.699219 102.636719 223.773438 102.847656 C 224.847656 103.0625 225.910156 103.328125 226.957031 103.648438 C 228.003906 103.964844 229.035156 104.332031 230.046875 104.753906 C 231.058594 105.171875 232.046875 105.640625 233.015625 106.15625 C 233.980469 106.671875 234.917969 107.234375 235.828125 107.84375 C 236.738281 108.449219 237.617188 109.101562 238.464844 109.796875 C 239.3125 110.492188 240.121094 111.226562 240.898438 112 C 241.671875 112.777344 242.40625 113.585938 243.101562 114.433594 C 243.796875 115.28125 244.449219 116.160156 245.054688 117.070312 C 245.664062 117.980469 246.226562 118.917969 246.742188 119.882812 C 247.257812 120.851562 247.726562 121.839844 248.148438 122.851562 C 248.566406 123.863281 248.933594 124.894531 249.253906 125.941406 C 249.570312 126.988281 249.835938 128.050781 250.050781 129.125 C 250.261719 130.199219 250.425781 131.28125 250.53125 132.371094 C 250.636719 133.460938 250.691406 134.554688 250.691406 135.648438 Z M 250.691406 135.648438 " fill-opacity="1" fill-rule="nonzero"/></g><path fill="#ffffff" d="M 206.617188 153.507812 L 237.777344 135.648438 L 206.617188 117.789062 Z M 206.617188 153.507812 " fill-opacity="1" fill-rule="nonzero"/><g transform="matrix(1, 0, 0, 1, 150, 207)"><g clip-path="url(#d39de3c965)"><g fill="#000000" fill-opacity="1"><g transform="translate(0.48603, 44.619906)"><g><path d="M 20.21875 0 L 14.265625 0 C 14.421875 -1.300781 14.3125 -2.804688 13.9375 -4.515625 L 10.3125 -20.21875 L 7.265625 -20.21875 L 7.265625 0 C 6.335938 -0.0507812 5.492188 -0.109375 4.734375 -0.171875 C 3.972656 -0.242188 3.328125 -0.320312 2.796875 -0.40625 L 2.796875 -34.234375 C 3.785156 -34.453125 5.003906 -34.625 6.453125 -34.75 C 7.898438 -34.882812 9.398438 -34.953125 10.953125 -34.953125 C 13.660156 -34.953125 15.820312 -34.351562 17.4375 -33.15625 C 19.050781 -31.957031 19.859375 -30.210938 19.859375 -27.921875 C 19.859375 -26.648438 19.550781 -25.550781 18.9375 -24.625 C 18.320312 -23.707031 17.585938 -22.992188 16.734375 -22.484375 C 15.890625 -21.984375 15.078125 -21.679688 14.296875 -21.578125 L 18.34375 -4.15625 C 18.550781 -3.28125 18.804688 -2.5 19.109375 -1.8125 C 19.421875 -1.132812 19.789062 -0.53125 20.21875 0 Z M 7.265625 -23.609375 L 10.90625 -23.609375 C 12.238281 -23.609375 13.316406 -23.953125 14.140625 -24.640625 C 14.960938 -25.335938 15.375 -26.335938 15.375 -27.640625 C 15.375 -28.953125 15.015625 -29.925781 14.296875 -30.5625 C 13.578125 -31.195312 12.554688 -31.515625 11.234375 -31.515625 C 10.328125 -31.515625 9.554688 -31.488281 8.921875 -31.4375 C 8.296875 -31.382812 7.742188 -31.304688 7.265625 -31.203125 Z M 7.265625 -23.609375 "/></g></g></g><g clip-path="url(#57b5a84fbc)"><g fill="#000000" fill-opacity="1"><g transform="translate(21.89198, 44.619906)"><g><path d="M 21.6875 0 L 15.703125 0 C 15.859375 -1.382812 15.738281 -3.023438 15.34375 -4.921875 C 13.851562 -5.691406 12.253906 -6.054688 10.546875 -6.015625 C 8.835938 -5.972656 7.253906 -5.515625 5.796875 -4.640625 C 5.421875 -2.929688 5.3125 -1.382812 5.46875 0 L 0 0 C 0.425781 -0.53125 0.796875 -1.132812 1.109375 -1.8125 C 1.429688 -2.5 1.6875 -3.28125 1.875 -4.15625 L 8.671875 -34.40625 C 9.253906 -34.53125 9.90625 -34.640625 10.625 -34.734375 C 11.34375 -34.828125 12.128906 -34.898438 12.984375 -34.953125 L 19.890625 -4.109375 C 20.109375 -3.234375 20.367188 -2.460938 20.671875 -1.796875 C 20.984375 -1.128906 21.320312 -0.53125 21.6875 0 Z M 13.90625 -8.984375 L 14.296875 -8.984375 L 11.5 -23.09375 C 11.394531 -23.601562 11.320312 -24.007812 11.28125 -24.3125 C 11.25 -24.613281 11.203125 -24.90625 11.140625 -25.1875 C 11.085938 -25.46875 11 -25.820312 10.875 -26.25 L 10.46875 -26.25 C 10.332031 -25.820312 10.238281 -25.46875 10.1875 -25.1875 C 10.132812 -24.90625 10.085938 -24.613281 10.046875 -24.3125 C 10.003906 -24.007812 9.929688 -23.601562 9.828125 -23.09375 L 6.984375 -8.984375 L 7.390625 -8.984375 C 8.398438 -9.441406 9.472656 -9.671875 10.609375 -9.671875 C 11.742188 -9.671875 12.84375 -9.441406 13.90625 -8.984375 Z M 11.984375 -37.390625 L 9.390625 -37.390625 L 11.03125 -40.59375 C 11.75 -41.925781 11.960938 -42.988281 11.671875 -43.78125 L 16.09375 -43.78125 C 16.207031 -43.4375 16.132812 -43.007812 15.875 -42.5 C 15.625 -42 15.300781 -41.46875 14.90625 -40.90625 Z M 11.984375 -37.390625 "/></g></g></g></g><g fill="#000000" fill-opacity="1"><g transform="translate(43.577496, 44.619906)"><g><path d="M 20.21875 -21.015625 C 20.300781 -18.109375 20.144531 -15.390625 19.75 -12.859375 C 19.363281 -10.328125 18.710938 -8.097656 17.796875 -6.171875 C 16.878906 -4.242188 15.6875 -2.734375 14.21875 -1.640625 C 12.757812 -0.546875 11.003906 0 8.953125 0 C 7.460938 0 6.28125 -0.0664062 5.40625 -0.203125 C 4.539062 -0.335938 3.671875 -0.523438 2.796875 -0.765625 L 2.796875 -34.234375 C 3.785156 -34.453125 4.8125 -34.625 5.875 -34.75 C 6.9375 -34.882812 8.238281 -34.953125 9.78125 -34.953125 C 13.25 -34.953125 15.828125 -33.875 17.515625 -31.71875 C 19.210938 -29.5625 20.113281 -25.992188 20.21875 -21.015625 Z M 7.234375 -3.4375 L 9.34375 -3.4375 C 10.65625 -3.457031 11.769531 -4.179688 12.6875 -5.609375 C 13.601562 -7.035156 14.304688 -9.066406 14.796875 -11.703125 C 15.296875 -14.335938 15.53125 -17.441406 15.5 -21.015625 C 15.445312 -23.804688 15.160156 -25.960938 14.640625 -27.484375 C 14.117188 -29.003906 13.445312 -30.054688 12.625 -30.640625 C 11.800781 -31.222656 10.894531 -31.515625 9.90625 -31.515625 C 9.320312 -31.515625 8.894531 -31.5 8.625 -31.46875 C 8.363281 -31.445312 8.144531 -31.414062 7.96875 -31.375 C 7.800781 -31.34375 7.554688 -31.285156 7.234375 -31.203125 Z M 7.234375 -3.4375 "/></g></g></g><g fill="#000000" fill-opacity="1"><g transform="translate(65.023395, 44.619906)"><g><path d="M 7.265625 -34.953125 L 7.265625 0 C 6.335938 -0.0507812 5.492188 -0.109375 4.734375 -0.171875 C 3.972656 -0.242188 3.328125 -0.320312 2.796875 -0.40625 L 2.796875 -34.40625 C 3.992188 -34.644531 5.484375 -34.828125 7.265625 -34.953125 Z M 7.265625 -34.953125 "/></g></g></g><g fill="#000000" fill-opacity="1"><g transform="translate(75.087395, 44.619906)"><g><path d="M 17.34375 -3.203125 C 19.101562 -3.203125 20.703125 -3.570312 22.140625 -4.3125 C 23.578125 -5.0625 24.8125 -6.085938 25.84375 -7.390625 C 26.882812 -8.691406 27.691406 -10.207031 28.265625 -11.9375 C 28.835938 -13.675781 29.125 -15.53125 29.125 -17.5 C 29.125 -20.132812 28.648438 -22.535156 27.703125 -24.703125 C 26.765625 -26.878906 25.414062 -28.601562 23.65625 -29.875 C 21.894531 -31.15625 19.789062 -31.796875 17.34375 -31.796875 C 14.882812 -31.796875 12.773438 -31.15625 11.015625 -29.875 C 9.265625 -28.601562 7.914062 -26.878906 6.96875 -24.703125 C 6.019531 -22.535156 5.546875 -20.132812 5.546875 -17.5 C 5.546875 -15.53125 5.832031 -13.675781 6.40625 -11.9375 C 6.976562 -10.207031 7.785156 -8.691406 8.828125 -7.390625 C 9.867188 -6.085938 11.109375 -5.0625 12.546875 -4.3125 C 13.984375 -3.570312 15.582031 -3.203125 17.34375 -3.203125 Z M 17.34375 -35.234375 C 19.789062 -35.234375 22.023438 -34.773438 24.046875 -33.859375 C 26.078125 -32.941406 27.820312 -31.671875 29.28125 -30.046875 C 30.75 -28.421875 31.878906 -26.535156 32.671875 -24.390625 C 33.472656 -22.242188 33.875 -19.945312 33.875 -17.5 C 33.875 -15.050781 33.472656 -12.753906 32.671875 -10.609375 C 31.878906 -8.460938 30.75 -6.578125 29.28125 -4.953125 C 27.820312 -3.328125 26.078125 -2.054688 24.046875 -1.140625 C 22.023438 -0.222656 19.789062 0.234375 17.34375 0.234375 C 14.882812 0.234375 12.644531 -0.222656 10.625 -1.140625 C 8.601562 -2.054688 6.859375 -3.328125 5.390625 -4.953125 C 3.929688 -6.578125 2.800781 -8.460938 2 -10.609375 C 1.195312 -12.753906 0.796875 -15.050781 0.796875 -17.5 C 0.796875 -19.945312 1.195312 -22.242188 2 -24.390625 C 2.800781 -26.535156 3.929688 -28.421875 5.390625 -30.046875 C 6.859375 -31.671875 8.601562 -32.941406 10.625 -33.859375 C 12.644531 -34.773438 14.882812 -35.234375 17.34375 -35.234375 Z M 17.34375 -35.234375 "/></g></g></g></g></g><g transform="matrix(1, 0, 0, 1, 188, 257)"><g clip-path="url(#64860f533b)"><g clip-path="url(#dc030bbf57)"><g fill="#000000" fill-opacity="1"><g transform="translate(0.707741, 19.739302)"><g><path d="M 3.046875 -14.9375 C 3.046875 -14.425781 3.21875 -13.9375 3.5625 -13.46875 C 3.90625 -13 4.347656 -12.539062 4.890625 -12.09375 C 5.429688 -11.644531 6.003906 -11.179688 6.609375 -10.703125 C 7.210938 -10.210938 7.796875 -9.671875 8.359375 -9.078125 C 8.929688 -8.492188 9.394531 -7.828125 9.75 -7.078125 C 10.101562 -6.335938 10.28125 -5.488281 10.28125 -4.53125 C 10.28125 -3.675781 10.082031 -2.90625 9.6875 -2.21875 C 9.289062 -1.539062 8.722656 -1 7.984375 -0.59375 C 7.253906 -0.195312 6.394531 0 5.40625 0 C 4.675781 0 3.96875 -0.078125 3.28125 -0.234375 C 2.59375 -0.398438 1.992188 -0.640625 1.484375 -0.953125 L 1.484375 -4.625 C 1.671875 -4.125 1.972656 -3.664062 2.390625 -3.25 C 2.816406 -2.84375 3.296875 -2.507812 3.828125 -2.25 C 4.359375 -2 4.878906 -1.875 5.390625 -1.875 C 6.171875 -1.875 6.800781 -2.066406 7.28125 -2.453125 C 7.757812 -2.835938 8 -3.429688 8 -4.234375 C 8 -4.859375 7.820312 -5.429688 7.46875 -5.953125 C 7.113281 -6.484375 6.648438 -6.992188 6.078125 -7.484375 C 5.515625 -7.972656 4.925781 -8.460938 4.3125 -8.953125 C 3.726562 -9.429688 3.164062 -9.945312 2.625 -10.5 C 2.09375 -11.050781 1.660156 -11.679688 1.328125 -12.390625 C 0.992188 -13.097656 0.828125 -13.898438 0.828125 -14.796875 C 0.828125 -15.660156 1.03125 -16.410156 1.4375 -17.046875 C 1.84375 -17.679688 2.410156 -18.175781 3.140625 -18.53125 C 3.878906 -18.894531 4.722656 -19.078125 5.671875 -19.078125 C 6.304688 -19.078125 6.878906 -19.015625 7.390625 -18.890625 C 7.898438 -18.765625 8.363281 -18.597656 8.78125 -18.390625 L 8.78125 -15 C 8.507812 -15.726562 8.085938 -16.296875 7.515625 -16.703125 C 6.953125 -17.117188 6.335938 -17.328125 5.671875 -17.328125 C 4.828125 -17.328125 4.175781 -17.109375 3.71875 -16.671875 C 3.269531 -16.234375 3.046875 -15.65625 3.046875 -14.9375 Z M 3.046875 -14.9375 "/></g></g></g></g><g clip-path="url(#90e546f1e7)"><g fill="#000000" fill-opacity="1"><g transform="translate(11.36649, 19.739302)"><g><path d="M 10.859375 -15.21875 C 10.898438 -13.832031 10.457031 -12.785156 9.53125 -12.078125 C 8.613281 -11.378906 7.332031 -11.03125 5.6875 -11.03125 C 5.507812 -11.03125 5.25 -11.054688 4.90625 -11.109375 C 4.570312 -11.160156 4.316406 -11.207031 4.140625 -11.25 L 3.96875 -11.25 L 3.96875 0 C 3.457031 -0.03125 2.992188 -0.0625 2.578125 -0.09375 C 2.171875 -0.132812 1.820312 -0.175781 1.53125 -0.21875 L 1.53125 -18.6875 C 2.0625 -18.800781 2.722656 -18.894531 3.515625 -18.96875 C 4.304688 -19.039062 5.125 -19.078125 5.96875 -19.078125 C 7.457031 -19.078125 8.628906 -18.742188 9.484375 -18.078125 C 10.335938 -17.421875 10.796875 -16.46875 10.859375 -15.21875 Z M 3.96875 -12.875 L 6.140625 -12.875 C 6.867188 -12.875 7.421875 -13.070312 7.796875 -13.46875 C 8.179688 -13.863281 8.375 -14.398438 8.375 -15.078125 C 8.375 -15.796875 8.175781 -16.328125 7.78125 -16.671875 C 7.382812 -17.023438 6.828125 -17.203125 6.109375 -17.203125 C 5.609375 -17.203125 5.191406 -17.1875 4.859375 -17.15625 C 4.523438 -17.125 4.226562 -17.078125 3.96875 -17.015625 Z M 3.96875 -12.875 "/></g></g></g></g><g clip-path="url(#8223738898)"><g fill="#000000" fill-opacity="1"><g transform="translate(22.461181, 19.739302)"><g><path d="M 10.859375 -15.21875 C 10.898438 -13.832031 10.457031 -12.785156 9.53125 -12.078125 C 8.613281 -11.378906 7.332031 -11.03125 5.6875 -11.03125 C 5.507812 -11.03125 5.25 -11.054688 4.90625 -11.109375 C 4.570312 -11.160156 4.316406 -11.207031 4.140625 -11.25 L 3.96875 -11.25 L 3.96875 0 C 3.457031 -0.03125 2.992188 -0.0625 2.578125 -0.09375 C 2.171875 -0.132812 1.820312 -0.175781 1.53125 -0.21875 L 1.53125 -18.6875 C 2.0625 -18.800781 2.722656 -18.894531 3.515625 -18.96875 C 4.304688 -19.039062 5.125 -19.078125 5.96875 -19.078125 C 7.457031 -19.078125 8.628906 -18.742188 9.484375 -18.078125 C 10.335938 -17.421875 10.796875 -16.46875 10.859375 -15.21875 Z M 3.96875 -12.875 L 6.140625 -12.875 C 6.867188 -12.875 7.421875 -13.070312 7.796875 -13.46875 C 8.179688 -13.863281 8.375 -14.398438 8.375 -15.078125 C 8.375 -15.796875 8.175781 -16.328125 7.78125 -16.671875 C 7.382812 -17.023438 6.828125 -17.203125 6.109375 -17.203125 C 5.609375 -17.203125 5.191406 -17.1875 4.859375 -17.15625 C 4.523438 -17.125 4.226562 -17.078125 3.96875 -17.015625 Z M 3.96875 -12.875 "/></g></g></g></g></g></g><g clip-path="url(#63469bf432)"><g clip-path="url(#17303179ac)"><g transform="matrix(1, 0, 0, 1, 115, 147)"><g clip-path="url(#ec73244f93)"><g clip-path="url(#3a09c46359)"><g clip-path="url(#dc93804dd0)"><path fill="#00bf63" d="M 0.207031 0.855469 L 31.019531 0.855469 L 31.019531 30.507812 L 0.207031 30.507812 Z M 0.207031 0.855469 " fill-opacity="1" fill-rule="nonzero"/></g></g></g></g></g></g><g clip-path="url(#e018f406c7)"><g clip-path="url(#34a274cc62)"><g transform="matrix(1, 0, 0, 1, 115, 180)"><g clip-path="url(#51b1dd8fd7)"><g clip-path="url(#89414eef8f)"><g clip-path="url(#ad24647b4d)"><path fill="#00bf63" d="M 0.207031 0.769531 L 31.019531 0.769531 L 31.019531 30.421875 L 0.207031 30.421875 Z M 0.207031 0.769531 " fill-opacity="1" fill-rule="nonzero"/></g></g></g></g></g></g><g clip-path="url(#ba5a7f4d9b)"><g clip-path="url(#844e1e343e)"><g transform="matrix(1, 0, 0, 1, 115, 213)"><g clip-path="url(#c4b0c19b03)"><g clip-path="url(#2b9a091744)"><g clip-path="url(#2947f33247)"><path fill="#00bf63" d="M 0.207031 0.683594 L 31.019531 0.683594 L 31.019531 30.339844 L 0.207031 30.339844 Z M 0.207031 0.683594 " fill-opacity="1" fill-rule="nonzero"/></g></g></g></g></g></g><g clip-path="url(#33931579a1)"><g clip-path="url(#7128fedaa8)"><g transform="matrix(1, 0, 0, 1, 148, 180)"><g clip-path="url(#26940bb0c2)"><g clip-path="url(#df66d50621)"><g clip-path="url(#035f0eb3e3)"><path fill="#00bf63" d="M 0.480469 0.769531 L 31.292969 0.769531 L 31.292969 30.421875 L 0.480469 30.421875 Z M 0.480469 0.769531 " fill-opacity="1" fill-rule="nonzero"/></g></g></g></g></g></g><g clip-path="url(#8531cbc100)"><g clip-path="url(#fe40c89425)"><g transform="matrix(1, 0, 0, 1, 148, 114)"><g clip-path="url(#05f9afa9cd)"><g clip-path="url(#95df4c9dfd)"><g clip-path="url(#d80f7c2a73)"><path fill="#00bf63" d="M 0.480469 0.867188 L 31.292969 0.867188 L 31.292969 30.523438 L 0.480469 30.523438 Z M 0.480469 0.867188 " fill-opacity="1" fill-rule="nonzero"/></g></g></g></g></g></g></svg>